<?xml version="1.0" encoding="UTF-8"?>
<svg id="Capa_1" data-name="Capa 1" xmlns="http://www.w3.org/2000/svg" viewBox="0 0 1080 1080">
  <defs>
    <style>
      .cls-1 {
        fill: #fff0dc;
        stroke-width: 0px;
      }
    </style>
  </defs>
  <path class="cls-1" d="M510.58,424.64c6.2,2.09,11.7,6.63,17.16,10.58,9.85,7.13,19.05,15.19,29.23,21.77,10.68,6.92,18.58,16.48,23.51,27.33,6.3,13.86,17.18,21.74,29.05,29.36,6.15,3.95,12.46,7.73,18.32,12.09,14.19,10.58,26.2,21.62,41.53,30.09,16.28,8.99,32.87,16.6,51.94,19.3,3.39.48,7.03.93,9.98,2.48,8.7,4.6,17.93,6.55,27.31,7.81v-32.11c-4.32-3.07-8.77-5.97-13.24-8.82-3.36-2.16-5.58-4.6-3.39-8.53,4.21-7.57,1.54-14.28-1.56-21.2-.48-1.07-1.12-2.06-1.88-2.96l-10.97-12.6c-1-1.15-2.12-2.19-3.24-3.21-2.8-2.58-5.14-6.79-5.36-10.19-.57-8.52-4.96-14.01-10.76-19.15-6.02-5.32-11.95-10.75-18.22-16.41,5.29-9.82,3.7-8.5,2.85-17.48l-2.96-16.3s-2.77-10.68-2.26-18.94c.06-.86-.01-1.72-.25-2.53l-2.74-9.42c-1.08-3.86-3.06-7.46-3.23-11.94l-1.45-2.87c-.82-.76-2.77-3.93-3.57-4.65-16.62,9.47-20.27,3.5-33.63,15.15-3.56,3.1-6.88,4.42-11.74,4.1-3.18-.19-7.08,1.61-9.75,3.68-10.75,8.31-21.09,17.16-31.72,25.62-2.08,1.65-4.78,2.59-7.26,3.7-5.14,2.3-10.58,4.04-15.41,6.83-5.76,3.32-10.94,7.66-16.53,11.27-10.47,6.76-10.55,6.69-18.96-2.49-.47-.51-1.15-1.41-1.54-1.99-4.47-6.56-11.34-9.06-18.72-11.3-4.61-1.4-9.1-4.17-12.82-7.3-14.4-12.09-28.46-24.58-42.44-36.72-13.89,10.09-27.06,20.12-40.75,29.37-4.31,2.91-10.03,3.74-15.09,5.5-2.51.87-5.77.97-7.44,2.66-9.25,9.47-19.22,17.49-31.92,22.24-6.34,2.37-11.74,7.16-17.77,10.48-7.13,3.92-14.3,7.77-21.49,11.6v27.58c14.36,5.23,28.73,10.46,43.16,15.52,8.45,2.96,15.81,7.05,21.39,14.35,10.5,13.71,24.41,24.12,40.14,29.55,12.82,4.43,27.72,5.26,41.43,4.2,19.8-1.55,37.14,4.36,53.2,13.81,16.62,9.79,34.06,15.19,52.76,19.04,12.61,2.59,24.26,9.62,36.57,14.03,15.55,5.58,31.21,10.91,47.05,15.54,6.41,1.86,13.45,1.55,20.2,2.24-7.55,1.34-17.2,2.78-24.95,4.14-.69.12-.98.96-.54,1.48.47.54,1.02.87,1.65,1.09,8.32,1.25,16.62,2.87,24.98,3.67,26.38,2.55,52.79,4.61,79.15,7.21.35.03.68.07,1.02.11v-23.48c-14.36,2.06-29.01,3-44.08,3.02,14.22-2.37,29.29-5.04,44.08-7.64v-12.27c-6.54-1.26-13.03-2.71-19.5-4.27-7.13-1.72-14.22-3.68-21.2-5.91-8.5-2.73-16.96-5.65-25.31-8.82-16.09-6.12-31.89-13.03-48.16-18.6-17.9-6.12-36.31-10.79-54.25-16.77-4.46-1.48-8.09-5.5-12.03-8.45-3.57-2.69-7.2-5.35-10.51-8.34-1.62-1.48-2.76-3.63-3.77-5.64-2.02-4.02-3.3-8.5-5.82-12.13-3.9-5.62-8.54-10.73-11.83-17.03-.15-.28-.35-.54-.58-.75l-7.26-6.33c-.47-.42-1.09-.64-1.72-.57-2.49.25-5.18,1.15-8.09,2.82-10.21,5.87-19.46,4.6-27.22-6.04-6.48-8.85-14.8-16.37-21.73-23.84l-1.99-25.29c-.08-1.02-.39-2.02-.87-2.94l-2.33-4.24c-.33-.59-.79-1.11-1.34-1.51-10.03-7.41-13.87-12.75-13.67-27.79.01-1.48-.72-2.96-1.51-5.97,12.66,11.06,24.36,21.03,35.73,31.35,5.03,4.57,10.33,7.75,16.92,9.96Z"/>
  <path class="cls-1" d="M570.6,674.58c-3.57.58-7.2,1.86-10.4,3.54-2.23,1.18-5.12,3.57-5.22,5.57-.1,1.87,2.67,4.82,4.85,5.7,6.98,2.89,14.1,5.97,21.45,7.34,31.27,5.83,62.53,11.71,93.87,17.13h83.47v-64.9c-33.37,4.11-66.83,7.46-100.16,11.89-29.38,3.9-58.6,8.99-87.86,13.72Z"/>
  <path class="cls-1" d="M460.16,676.99c21.26-4.85,42.51-10.37,64.08-12.91,40.03-4.68,80.27-7.56,120.44-10.97,25.49-2.17,51.03-3.71,76.49-6.04,6.92-.64,13.82-1.66,20.72-3.06,3.89-.8,3.84-6.4-.06-7.16-37.33-7.35-75.61-7.27-112.73-14.76-.15-.15-.32-.32-.47-.47-.71-.72-.37-1.92.61-2.15,5.93-1.38,12.84-2.92,19.9-4.57-14.64-4.96-27.85-9.19-40.9-13.9-12.73-4.57-24.95-11.24-38.02-14.05-18.44-3.96-35.57-9.8-52-19.3-15.91-9.22-32.8-15.32-52.55-12.67-34.24,4.6-60.96-10.69-83.33-35.53-4.47-4.97-10.29-9.65-16.42-12.03-14.71-5.72-29.62-10.88-44.53-16.04v222.48h157.4c-7.01-3.3-13.92-6.8-20.85-10.18-6-2.94-13.4-6.73-12.5-14.9.84-7.68,8.41-10.36,14.73-11.8Z"/>
</svg>